<svg xmlns="http://www.w3.org/2000/svg" width="55" height="54" viewBox="0 0 55 54"><g><g><path fill="#545454" d="M54.889 49.718a4.187 4.187 0 0 1-1.236 2.983 4.19 4.19 0 0 1-2.982 1.235A4.188 4.188 0 0 1 47.69 52.7L37.507 42.518l-.001-.001-3.89-3.89a20.898 20.898 0 0 1-11.624 3.5c-11.628 0-21.088-9.46-21.088-21.088S10.364-.049 21.992-.049 43.08 9.411 43.08 21.04c0 4.17-1.208 8.17-3.5 11.624l14.073 14.073a4.188 4.188 0 0 1 1.236 2.982zM37.358 32.167a18.818 18.818 0 0 0 3.613-11.128c0-10.465-8.514-18.979-18.979-18.979s-18.98 8.514-18.98 18.98c0 10.464 8.515 18.978 18.98 18.978a18.82 18.82 0 0 0 11.128-3.613 19.07 19.07 0 0 0 4.238-4.238zm.965 8.185a25.59 25.59 0 0 0 2.982-2.982l-2.992-2.991a21.162 21.162 0 0 1-2.982 2.981zm14.457 9.366c0-.563-.22-1.092-.618-1.49L42.8 38.865a27.691 27.691 0 0 1-2.98 2.982l9.362 9.362c.398.399.928.618 1.49.618.563 0 1.092-.219 1.491-.618.399-.398.618-.927.618-1.49zM38.862 21.04c0 9.302-7.568 16.87-16.87 16.87-9.302 0-16.87-7.568-16.87-16.87 0-9.302 7.568-16.87 16.87-16.87 9.302 0 16.87 7.568 16.87 16.87zm-2.109 0c0-8.14-6.622-14.761-14.76-14.761-8.14 0-14.762 6.622-14.762 14.761 0 8.14 6.621 14.762 14.761 14.762 8.14 0 14.761-6.622 14.761-14.762z"/></g></g></svg>